<?xml version="1.0" encoding="UTF-8" standalone="no"?>
<!DOCTYPE svg PUBLIC "-//W3C//DTD SVG 1.1//EN"
 "http://www.w3.org/Graphics/SVG/1.1/DTD/svg11.dtd">
<!-- Generated by graphviz version 2.40.1 (20161225.0304)
 -->
<!-- Title: %3 Pages: 1 -->
<svg width="3533pt" height="585pt"
 viewBox="0.00 0.00 3533.47 585.44" xmlns="http://www.w3.org/2000/svg" xmlns:xlink="http://www.w3.org/1999/xlink">
<g id="graph0" class="graph" transform="scale(1 1) rotate(0) translate(4 581.4407)">
<title>%3</title>
<polygon fill="#ffffff" stroke="transparent" points="-4,4 -4,-581.4407 3529.4666,-581.4407 3529.4666,4 -4,4"/>
<!-- split0 -->
<g id="node1" class="node">
<title>split0</title>
<ellipse fill="none" stroke="#000000" cx="1013.9655" cy="-550.5706" rx="149.3993" ry="26.7407"/>
<text text-anchor="middle" x="1013.9655" y="-554.3706" font-family="Times,serif" font-size="14.00" fill="#000000">split_feature_name:Contract_Month&#45;to&#45;month</text>
<text text-anchor="middle" x="1013.9655" y="-539.3706" font-family="Times,serif" font-size="14.00" fill="#000000">threshold:1.0000000180025095e&#45;35</text>
</g>
<!-- split7 -->
<g id="node2" class="node">
<title>split7</title>
<ellipse fill="none" stroke="#000000" cx="753.9655" cy="-445.8305" rx="120.4167" ry="26.7407"/>
<text text-anchor="middle" x="753.9655" y="-449.6305" font-family="Times,serif" font-size="14.00" fill="#000000">split_feature_name:MonthlyCharges</text>
<text text-anchor="middle" x="753.9655" y="-434.6305" font-family="Times,serif" font-size="14.00" fill="#000000">threshold:93.325</text>
</g>
<!-- split0&#45;&gt;split7 -->
<g id="edge7" class="edge">
<title>split0&#45;&gt;split7</title>
<path fill="none" stroke="#000000" d="M953.0071,-526.0137C913.6,-510.1387 862.2693,-489.4603 821.6058,-473.0792"/>
<polygon fill="#000000" stroke="#000000" points="822.8918,-469.8239 812.3083,-469.3337 820.2761,-476.3169 822.8918,-469.8239"/>
<text text-anchor="middle" x="905.9655" y="-494.5006" font-family="Times,serif" font-size="14.00" fill="#000000">&lt;=</text>
</g>
<!-- split1 -->
<g id="node9" class="node">
<title>split1</title>
<ellipse fill="none" stroke="#000000" cx="1240.9655" cy="-445.8305" rx="154.2987" ry="26.7407"/>
<text text-anchor="middle" x="1240.9655" y="-449.6305" font-family="Times,serif" font-size="14.00" fill="#000000">split_feature_name:InternetService_Fiber_optic</text>
<text text-anchor="middle" x="1240.9655" y="-434.6305" font-family="Times,serif" font-size="14.00" fill="#000000">threshold:1.0000000180025095e&#45;35</text>
</g>
<!-- split0&#45;&gt;split1 -->
<g id="edge32" class="edge">
<title>split0&#45;&gt;split1</title>
<path fill="none" stroke="#000000" d="M1068.3377,-525.4828C1100.9483,-510.4359 1142.594,-491.2202 1176.8102,-475.4324"/>
<polygon fill="#000000" stroke="#000000" points="1178.6366,-478.4444 1186.2503,-471.0767 1175.7038,-472.0884 1178.6366,-478.4444"/>
<text text-anchor="middle" x="1144.9655" y="-494.5006" font-family="Times,serif" font-size="14.00" fill="#000000">&gt;</text>
</g>
<!-- split15 -->
<g id="node3" class="node">
<title>split15</title>
<ellipse fill="none" stroke="#000000" cx="365.9655" cy="-341.0904" rx="128.8872" ry="26.7407"/>
<text text-anchor="middle" x="365.9655" y="-344.8904" font-family="Times,serif" font-size="14.00" fill="#000000">split_feature_name:Contract_One_year</text>
<text text-anchor="middle" x="365.9655" y="-329.8904" font-family="Times,serif" font-size="14.00" fill="#000000">threshold:1.0000000180025095e&#45;35</text>
</g>
<!-- split7&#45;&gt;split15 -->
<g id="edge3" class="edge">
<title>split7&#45;&gt;split15</title>
<path fill="none" stroke="#000000" d="M676.8453,-425.012C612.8103,-407.7258 521.689,-383.1278 454.6468,-365.0298"/>
<polygon fill="#000000" stroke="#000000" points="455.5028,-361.6357 444.9361,-362.4084 453.6784,-368.3937 455.5028,-361.6357"/>
<text text-anchor="middle" x="589.9655" y="-389.7605" font-family="Times,serif" font-size="14.00" fill="#000000">&lt;=</text>
</g>
<!-- split12 -->
<g id="node6" class="node">
<title>split12</title>
<ellipse fill="none" stroke="#000000" cx="753.9655" cy="-341.0904" rx="128.8872" ry="26.7407"/>
<text text-anchor="middle" x="753.9655" y="-344.8904" font-family="Times,serif" font-size="14.00" fill="#000000">split_feature_name:Contract_One_year</text>
<text text-anchor="middle" x="753.9655" y="-329.8904" font-family="Times,serif" font-size="14.00" fill="#000000">threshold:1.0000000180025095e&#45;35</text>
</g>
<!-- split7&#45;&gt;split12 -->
<g id="edge6" class="edge">
<title>split7&#45;&gt;split12</title>
<path fill="none" stroke="#000000" d="M753.9655,-418.8573C753.9655,-406.5179 753.9655,-391.6964 753.9655,-378.3175"/>
<polygon fill="#000000" stroke="#000000" points="757.4656,-377.9721 753.9655,-367.9722 750.4656,-377.9722 757.4656,-377.9721"/>
<text text-anchor="middle" x="756.9655" y="-389.7605" font-family="Times,serif" font-size="14.00" fill="#000000">&gt;</text>
</g>
<!-- leaf0 -->
<g id="node4" class="node">
<title>leaf0</title>
<ellipse fill="none" stroke="#000000" cx="115.9655" cy="-236.3503" rx="115.931" ry="26.7407"/>
<text text-anchor="middle" x="115.9655" y="-240.1503" font-family="Times,serif" font-size="14.00" fill="#000000">leaf_index:0</text>
<text text-anchor="middle" x="115.9655" y="-225.1503" font-family="Times,serif" font-size="14.00" fill="#000000">leaf_value:&#45;0.03815802490999358</text>
</g>
<!-- split15&#45;&gt;leaf0 -->
<g id="edge1" class="edge">
<title>split15&#45;&gt;leaf0</title>
<path fill="none" stroke="#000000" d="M308.2966,-316.9294C270.5164,-301.101 221.0397,-280.3722 181.7297,-263.9029"/>
<polygon fill="#000000" stroke="#000000" points="183.0584,-260.6648 172.4827,-260.0287 180.3535,-267.1211 183.0584,-260.6648"/>
<text text-anchor="middle" x="261.9655" y="-285.0203" font-family="Times,serif" font-size="14.00" fill="#000000">&lt;=</text>
</g>
<!-- leaf16 -->
<g id="node5" class="node">
<title>leaf16</title>
<ellipse fill="none" stroke="#000000" cx="365.9655" cy="-236.3503" rx="115.931" ry="26.7407"/>
<text text-anchor="middle" x="365.9655" y="-240.1503" font-family="Times,serif" font-size="14.00" fill="#000000">leaf_index:16</text>
<text text-anchor="middle" x="365.9655" y="-225.1503" font-family="Times,serif" font-size="14.00" fill="#000000">leaf_value:&#45;0.03374176096672247</text>
</g>
<!-- split15&#45;&gt;leaf16 -->
<g id="edge2" class="edge">
<title>split15&#45;&gt;leaf16</title>
<path fill="none" stroke="#000000" d="M365.9655,-314.1172C365.9655,-301.7778 365.9655,-286.9563 365.9655,-273.5774"/>
<polygon fill="#000000" stroke="#000000" points="369.4656,-273.232 365.9655,-263.2321 362.4656,-273.2321 369.4656,-273.232"/>
<text text-anchor="middle" x="368.9655" y="-285.0203" font-family="Times,serif" font-size="14.00" fill="#000000">&gt;</text>
</g>
<!-- leaf8 -->
<g id="node7" class="node">
<title>leaf8</title>
<ellipse fill="none" stroke="#000000" cx="615.9655" cy="-236.3503" rx="115.931" ry="26.7407"/>
<text text-anchor="middle" x="615.9655" y="-240.1503" font-family="Times,serif" font-size="14.00" fill="#000000">leaf_index:8</text>
<text text-anchor="middle" x="615.9655" y="-225.1503" font-family="Times,serif" font-size="14.00" fill="#000000">leaf_value:&#45;0.03272913692972676</text>
</g>
<!-- split12&#45;&gt;leaf8 -->
<g id="edge4" class="edge">
<title>split12&#45;&gt;leaf8</title>
<path fill="none" stroke="#000000" d="M719.4983,-314.9302C700.9171,-300.8274 677.8343,-283.3078 658.1825,-268.3924"/>
<polygon fill="#000000" stroke="#000000" points="660.075,-265.4349 649.9935,-262.1771 655.843,-271.0107 660.075,-265.4349"/>
<text text-anchor="middle" x="699.9655" y="-285.0203" font-family="Times,serif" font-size="14.00" fill="#000000">&lt;=</text>
</g>
<!-- leaf13 -->
<g id="node8" class="node">
<title>leaf13</title>
<ellipse fill="none" stroke="#000000" cx="865.9655" cy="-236.3503" rx="115.931" ry="26.7407"/>
<text text-anchor="middle" x="865.9655" y="-240.1503" font-family="Times,serif" font-size="14.00" fill="#000000">leaf_index:13</text>
<text text-anchor="middle" x="865.9655" y="-225.1503" font-family="Times,serif" font-size="14.00" fill="#000000">leaf_value:&#45;0.02115311896691269</text>
</g>
<!-- split12&#45;&gt;leaf13 -->
<g id="edge5" class="edge">
<title>split12&#45;&gt;leaf13</title>
<path fill="none" stroke="#000000" d="M782.2278,-314.6601C796.8186,-301.0151 814.7704,-284.2269 830.3054,-269.6989"/>
<polygon fill="#000000" stroke="#000000" points="832.799,-272.159 837.7122,-262.7722 828.0177,-267.0463 832.799,-272.159"/>
<text text-anchor="middle" x="819.9655" y="-285.0203" font-family="Times,serif" font-size="14.00" fill="#000000">&gt;</text>
</g>
<!-- split3 -->
<g id="node10" class="node">
<title>split3</title>
<ellipse fill="none" stroke="#000000" cx="1240.9655" cy="-341.0904" rx="106.1321" ry="26.7407"/>
<text text-anchor="middle" x="1240.9655" y="-344.8904" font-family="Times,serif" font-size="14.00" fill="#000000">split_feature_name:tenure</text>
<text text-anchor="middle" x="1240.9655" y="-329.8904" font-family="Times,serif" font-size="14.00" fill="#000000">threshold:3.5000000000000004</text>
</g>
<!-- split1&#45;&gt;split3 -->
<g id="edge18" class="edge">
<title>split1&#45;&gt;split3</title>
<path fill="none" stroke="#000000" d="M1240.9655,-418.8573C1240.9655,-406.5179 1240.9655,-391.6964 1240.9655,-378.3175"/>
<polygon fill="#000000" stroke="#000000" points="1244.4656,-377.9721 1240.9655,-367.9722 1237.4656,-377.9722 1244.4656,-377.9721"/>
<text text-anchor="middle" x="1246.9655" y="-389.7605" font-family="Times,serif" font-size="14.00" fill="#000000">&lt;=</text>
</g>
<!-- split2 -->
<g id="node21" class="node">
<title>split2</title>
<ellipse fill="none" stroke="#000000" cx="2227.9655" cy="-341.0904" rx="106.1321" ry="26.7407"/>
<text text-anchor="middle" x="2227.9655" y="-344.8904" font-family="Times,serif" font-size="14.00" fill="#000000">split_feature_name:tenure</text>
<text text-anchor="middle" x="2227.9655" y="-329.8904" font-family="Times,serif" font-size="14.00" fill="#000000">threshold:13.500000000000002</text>
</g>
<!-- split1&#45;&gt;split2 -->
<g id="edge31" class="edge">
<title>split1&#45;&gt;split2</title>
<path fill="none" stroke="#000000" d="M1372.797,-431.8406C1569.9075,-410.9233 1937.706,-371.8926 2119.9271,-352.5554"/>
<polygon fill="#000000" stroke="#000000" points="2120.4858,-356.0159 2130.0606,-351.48 2119.7471,-349.0549 2120.4858,-356.0159"/>
<text text-anchor="middle" x="1796.9655" y="-389.7605" font-family="Times,serif" font-size="14.00" fill="#000000">&gt;</text>
</g>
<!-- split4 -->
<g id="node11" class="node">
<title>split4</title>
<ellipse fill="none" stroke="#000000" cx="1121.9655" cy="-236.3503" rx="121.7449" ry="26.7407"/>
<text text-anchor="middle" x="1121.9655" y="-240.1503" font-family="Times,serif" font-size="14.00" fill="#000000">split_feature_name:TechSupport_No</text>
<text text-anchor="middle" x="1121.9655" y="-225.1503" font-family="Times,serif" font-size="14.00" fill="#000000">threshold:1.0000000180025095e&#45;35</text>
</g>
<!-- split3&#45;&gt;split4 -->
<g id="edge10" class="edge">
<title>split3&#45;&gt;split4</title>
<path fill="none" stroke="#000000" d="M1211.5498,-315.1996C1195.7927,-301.3307 1176.2158,-284.0997 1159.3854,-269.2861"/>
<polygon fill="#000000" stroke="#000000" points="1161.6884,-266.6505 1151.8694,-262.6708 1157.0635,-271.9051 1161.6884,-266.6505"/>
<text text-anchor="middle" x="1194.9655" y="-285.0203" font-family="Times,serif" font-size="14.00" fill="#000000">&lt;=</text>
</g>
<!-- split8 -->
<g id="node14" class="node">
<title>split8</title>
<ellipse fill="none" stroke="#000000" cx="1387.9655" cy="-236.3503" rx="126.6443" ry="26.7407"/>
<text text-anchor="middle" x="1387.9655" y="-240.1503" font-family="Times,serif" font-size="14.00" fill="#000000">split_feature_name:OnlineBackup_No</text>
<text text-anchor="middle" x="1387.9655" y="-225.1503" font-family="Times,serif" font-size="14.00" fill="#000000">threshold:1.0000000180025095e&#45;35</text>
</g>
<!-- split3&#45;&gt;split8 -->
<g id="edge17" class="edge">
<title>split3&#45;&gt;split8</title>
<path fill="none" stroke="#000000" d="M1276.5501,-315.7357C1296.6537,-301.4116 1321.9686,-283.3743 1343.3858,-268.1141"/>
<polygon fill="#000000" stroke="#000000" points="1345.5742,-270.8524 1351.6874,-262.1991 1341.5122,-265.1515 1345.5742,-270.8524"/>
<text text-anchor="middle" x="1326.9655" y="-285.0203" font-family="Times,serif" font-size="14.00" fill="#000000">&gt;</text>
</g>
<!-- leaf1 -->
<g id="node12" class="node">
<title>leaf1</title>
<ellipse fill="none" stroke="#000000" cx="866.9655" cy="-131.6102" rx="119.5021" ry="26.7407"/>
<text text-anchor="middle" x="866.9655" y="-135.4102" font-family="Times,serif" font-size="14.00" fill="#000000">leaf_index:1</text>
<text text-anchor="middle" x="866.9655" y="-120.4102" font-family="Times,serif" font-size="14.00" fill="#000000">leaf_value:&#45;0.015218885845671402</text>
</g>
<!-- split4&#45;&gt;leaf1 -->
<g id="edge8" class="edge">
<title>split4&#45;&gt;leaf1</title>
<path fill="none" stroke="#000000" d="M1064.1021,-212.5831C1025.3856,-196.6805 974.3114,-175.702 933.8509,-159.083"/>
<polygon fill="#000000" stroke="#000000" points="935.1799,-155.8452 924.6,-155.2833 932.5202,-162.3203 935.1799,-155.8452"/>
<text text-anchor="middle" x="1015.9655" y="-180.2802" font-family="Times,serif" font-size="14.00" fill="#000000">&lt;=</text>
</g>
<!-- leaf5 -->
<g id="node13" class="node">
<title>leaf5</title>
<ellipse fill="none" stroke="#000000" cx="1121.9655" cy="-131.6102" rx="117.2596" ry="26.7407"/>
<text text-anchor="middle" x="1121.9655" y="-135.4102" font-family="Times,serif" font-size="14.00" fill="#000000">leaf_index:5</text>
<text text-anchor="middle" x="1121.9655" y="-120.4102" font-family="Times,serif" font-size="14.00" fill="#000000">leaf_value:0.006712013198814205</text>
</g>
<!-- split4&#45;&gt;leaf5 -->
<g id="edge9" class="edge">
<title>split4&#45;&gt;leaf5</title>
<path fill="none" stroke="#000000" d="M1121.9655,-209.3771C1121.9655,-197.0377 1121.9655,-182.2162 1121.9655,-168.8373"/>
<polygon fill="#000000" stroke="#000000" points="1125.4656,-168.4919 1121.9655,-158.4919 1118.4656,-168.492 1125.4656,-168.4919"/>
<text text-anchor="middle" x="1124.9655" y="-180.2802" font-family="Times,serif" font-size="14.00" fill="#000000">&gt;</text>
</g>
<!-- split14 -->
<g id="node15" class="node">
<title>split14</title>
<ellipse fill="none" stroke="#000000" cx="1378.9655" cy="-131.6102" rx="121.7449" ry="26.7407"/>
<text text-anchor="middle" x="1378.9655" y="-135.4102" font-family="Times,serif" font-size="14.00" fill="#000000">split_feature_name:TechSupport_No</text>
<text text-anchor="middle" x="1378.9655" y="-120.4102" font-family="Times,serif" font-size="14.00" fill="#000000">threshold:1.0000000180025095e&#45;35</text>
</g>
<!-- split8&#45;&gt;split14 -->
<g id="edge13" class="edge">
<title>split8&#45;&gt;split14</title>
<path fill="none" stroke="#000000" d="M1385.6478,-209.3771C1384.5875,-197.0377 1383.3139,-182.2162 1382.1643,-168.8373"/>
<polygon fill="#000000" stroke="#000000" points="1385.6187,-168.1556 1381.2754,-158.4919 1378.6444,-168.7549 1385.6187,-168.1556"/>
<text text-anchor="middle" x="1390.9655" y="-180.2802" font-family="Times,serif" font-size="14.00" fill="#000000">&lt;=</text>
</g>
<!-- split11 -->
<g id="node18" class="node">
<title>split11</title>
<ellipse fill="none" stroke="#000000" cx="1644.9655" cy="-131.6102" rx="126.6443" ry="26.7407"/>
<text text-anchor="middle" x="1644.9655" y="-135.4102" font-family="Times,serif" font-size="14.00" fill="#000000">split_feature_name:TotalChargesConv</text>
<text text-anchor="middle" x="1644.9655" y="-120.4102" font-family="Times,serif" font-size="14.00" fill="#000000">threshold:906.2000000000002</text>
</g>
<!-- split8&#45;&gt;split11 -->
<g id="edge16" class="edge">
<title>split8&#45;&gt;split11</title>
<path fill="none" stroke="#000000" d="M1446.6044,-212.4521C1485.3626,-196.6562 1536.3035,-175.8953 1576.8572,-159.3677"/>
<polygon fill="#000000" stroke="#000000" points="1578.1947,-162.6021 1586.1342,-155.5868 1575.5528,-156.1198 1578.1947,-162.6021"/>
<text text-anchor="middle" x="1534.9655" y="-180.2802" font-family="Times,serif" font-size="14.00" fill="#000000">&gt;</text>
</g>
<!-- leaf4 -->
<g id="node16" class="node">
<title>leaf4</title>
<ellipse fill="none" stroke="#000000" cx="1125.9655" cy="-26.8701" rx="115.931" ry="26.7407"/>
<text text-anchor="middle" x="1125.9655" y="-30.6701" font-family="Times,serif" font-size="14.00" fill="#000000">leaf_index:4</text>
<text text-anchor="middle" x="1125.9655" y="-15.6701" font-family="Times,serif" font-size="14.00" fill="#000000">leaf_value:&#45;0.03087423491214469</text>
</g>
<!-- split14&#45;&gt;leaf4 -->
<g id="edge11" class="edge">
<title>split14&#45;&gt;leaf4</title>
<path fill="none" stroke="#000000" d="M1321.5559,-107.843C1283.089,-91.918 1232.3267,-70.9028 1192.1568,-54.2727"/>
<polygon fill="#000000" stroke="#000000" points="1193.29,-50.9539 1182.7116,-50.3625 1190.6124,-57.4215 1193.29,-50.9539"/>
<text text-anchor="middle" x="1273.9655" y="-75.5401" font-family="Times,serif" font-size="14.00" fill="#000000">&lt;=</text>
</g>
<!-- leaf15 -->
<g id="node17" class="node">
<title>leaf15</title>
<ellipse fill="none" stroke="#000000" cx="1378.9655" cy="-26.8701" rx="119.5021" ry="26.7407"/>
<text text-anchor="middle" x="1378.9655" y="-30.6701" font-family="Times,serif" font-size="14.00" fill="#000000">leaf_index:15</text>
<text text-anchor="middle" x="1378.9655" y="-15.6701" font-family="Times,serif" font-size="14.00" fill="#000000">leaf_value:&#45;0.022452755049486312</text>
</g>
<!-- split14&#45;&gt;leaf15 -->
<g id="edge12" class="edge">
<title>split14&#45;&gt;leaf15</title>
<path fill="none" stroke="#000000" d="M1378.9655,-104.637C1378.9655,-92.2976 1378.9655,-77.4761 1378.9655,-64.0972"/>
<polygon fill="#000000" stroke="#000000" points="1382.4656,-63.7518 1378.9655,-53.7518 1375.4656,-63.7519 1382.4656,-63.7518"/>
<text text-anchor="middle" x="1381.9655" y="-75.5401" font-family="Times,serif" font-size="14.00" fill="#000000">&gt;</text>
</g>
<!-- leaf9 -->
<g id="node19" class="node">
<title>leaf9</title>
<ellipse fill="none" stroke="#000000" cx="1635.9655" cy="-26.8701" rx="119.5021" ry="26.7407"/>
<text text-anchor="middle" x="1635.9655" y="-30.6701" font-family="Times,serif" font-size="14.00" fill="#000000">leaf_index:9</text>
<text text-anchor="middle" x="1635.9655" y="-15.6701" font-family="Times,serif" font-size="14.00" fill="#000000">leaf_value:&#45;0.012178708565621803</text>
</g>
<!-- split11&#45;&gt;leaf9 -->
<g id="edge14" class="edge">
<title>split11&#45;&gt;leaf9</title>
<path fill="none" stroke="#000000" d="M1642.6478,-104.637C1641.5875,-92.2976 1640.3139,-77.4761 1639.1643,-64.0972"/>
<polygon fill="#000000" stroke="#000000" points="1642.6187,-63.4154 1638.2754,-53.7518 1635.6444,-64.0148 1642.6187,-63.4154"/>
<text text-anchor="middle" x="1647.9655" y="-75.5401" font-family="Times,serif" font-size="14.00" fill="#000000">&lt;=</text>
</g>
<!-- leaf12 -->
<g id="node20" class="node">
<title>leaf12</title>
<ellipse fill="none" stroke="#000000" cx="1892.9655" cy="-26.8701" rx="119.5021" ry="26.7407"/>
<text text-anchor="middle" x="1892.9655" y="-30.6701" font-family="Times,serif" font-size="14.00" fill="#000000">leaf_index:12</text>
<text text-anchor="middle" x="1892.9655" y="-15.6701" font-family="Times,serif" font-size="14.00" fill="#000000">leaf_value:&#45;0.025446369739121434</text>
</g>
<!-- split11&#45;&gt;leaf12 -->
<g id="edge15" class="edge">
<title>split11&#45;&gt;leaf12</title>
<path fill="none" stroke="#000000" d="M1701.8617,-107.5807C1739.1701,-91.8239 1788.0762,-71.1689 1827.0738,-54.6987"/>
<polygon fill="#000000" stroke="#000000" points="1828.9115,-57.722 1836.7619,-50.607 1826.1881,-51.2735 1828.9115,-57.722"/>
<text text-anchor="middle" x="1786.9655" y="-75.5401" font-family="Times,serif" font-size="14.00" fill="#000000">&gt;</text>
</g>
<!-- split5 -->
<g id="node22" class="node">
<title>split5</title>
<ellipse fill="none" stroke="#000000" cx="2227.9655" cy="-236.3503" rx="126.6443" ry="26.7407"/>
<text text-anchor="middle" x="2227.9655" y="-240.1503" font-family="Times,serif" font-size="14.00" fill="#000000">split_feature_name:TotalChargesConv</text>
<text text-anchor="middle" x="2227.9655" y="-225.1503" font-family="Times,serif" font-size="14.00" fill="#000000">threshold:116.75000000000001</text>
</g>
<!-- split2&#45;&gt;split5 -->
<g id="edge23" class="edge">
<title>split2&#45;&gt;split5</title>
<path fill="none" stroke="#000000" d="M2227.9655,-314.1172C2227.9655,-301.7778 2227.9655,-286.9563 2227.9655,-273.5774"/>
<polygon fill="#000000" stroke="#000000" points="2231.4656,-273.232 2227.9655,-263.2321 2224.4656,-273.2321 2231.4656,-273.232"/>
<text text-anchor="middle" x="2233.9655" y="-285.0203" font-family="Times,serif" font-size="14.00" fill="#000000">&lt;=</text>
</g>
<!-- split6 -->
<g id="node27" class="node">
<title>split6</title>
<ellipse fill="none" stroke="#000000" cx="2658.9655" cy="-236.3503" rx="174.8109" ry="26.7407"/>
<text text-anchor="middle" x="2658.9655" y="-240.1503" font-family="Times,serif" font-size="14.00" fill="#000000">split_feature_name:PaymentMethod_Electronic_check</text>
<text text-anchor="middle" x="2658.9655" y="-225.1503" font-family="Times,serif" font-size="14.00" fill="#000000">threshold:1.0000000180025095e&#45;35</text>
</g>
<!-- split2&#45;&gt;split6 -->
<g id="edge30" class="edge">
<title>split2&#45;&gt;split6</title>
<path fill="none" stroke="#000000" d="M2304.523,-322.4857C2374.4642,-305.4888 2478.4443,-280.2199 2555.7144,-261.442"/>
<polygon fill="#000000" stroke="#000000" points="2556.587,-264.8319 2565.4776,-259.0694 2554.9339,-258.0299 2556.587,-264.8319"/>
<text text-anchor="middle" x="2472.9655" y="-285.0203" font-family="Times,serif" font-size="14.00" fill="#000000">&gt;</text>
</g>
<!-- leaf2 -->
<g id="node23" class="node">
<title>leaf2</title>
<ellipse fill="none" stroke="#000000" cx="2115.9655" cy="-131.6102" rx="113.2743" ry="26.7407"/>
<text text-anchor="middle" x="2115.9655" y="-135.4102" font-family="Times,serif" font-size="14.00" fill="#000000">leaf_index:2</text>
<text text-anchor="middle" x="2115.9655" y="-120.4102" font-family="Times,serif" font-size="14.00" fill="#000000">leaf_value:0.02878398296547516</text>
</g>
<!-- split5&#45;&gt;leaf2 -->
<g id="edge19" class="edge">
<title>split5&#45;&gt;leaf2</title>
<path fill="none" stroke="#000000" d="M2199.7032,-209.9199C2185.001,-196.1708 2166.8864,-179.2303 2151.2703,-164.6265"/>
<polygon fill="#000000" stroke="#000000" points="2153.5253,-161.9433 2143.8308,-157.6692 2148.744,-167.056 2153.5253,-161.9433"/>
<text text-anchor="middle" x="2184.9655" y="-180.2802" font-family="Times,serif" font-size="14.00" fill="#000000">&lt;=</text>
</g>
<!-- split9 -->
<g id="node24" class="node">
<title>split9</title>
<ellipse fill="none" stroke="#000000" cx="2366.9655" cy="-131.6102" rx="120.4167" ry="26.7407"/>
<text text-anchor="middle" x="2366.9655" y="-135.4102" font-family="Times,serif" font-size="14.00" fill="#000000">split_feature_name:MonthlyCharges</text>
<text text-anchor="middle" x="2366.9655" y="-120.4102" font-family="Times,serif" font-size="14.00" fill="#000000">threshold:80.325</text>
</g>
<!-- split5&#45;&gt;split9 -->
<g id="edge22" class="edge">
<title>split5&#45;&gt;split9</title>
<path fill="none" stroke="#000000" d="M2262.3251,-210.4595C2281.1204,-196.2967 2304.5687,-178.6278 2324.502,-163.6076"/>
<polygon fill="#000000" stroke="#000000" points="2326.6393,-166.3795 2332.5195,-157.5662 2322.4267,-160.7889 2326.6393,-166.3795"/>
<text text-anchor="middle" x="2308.9655" y="-180.2802" font-family="Times,serif" font-size="14.00" fill="#000000">&gt;</text>
</g>
<!-- leaf6 -->
<g id="node25" class="node">
<title>leaf6</title>
<ellipse fill="none" stroke="#000000" cx="2143.9655" cy="-26.8701" rx="113.2743" ry="26.7407"/>
<text text-anchor="middle" x="2143.9655" y="-30.6701" font-family="Times,serif" font-size="14.00" fill="#000000">leaf_index:6</text>
<text text-anchor="middle" x="2143.9655" y="-15.6701" font-family="Times,serif" font-size="14.00" fill="#000000">leaf_value:0.00398131832596203</text>
</g>
<!-- split9&#45;&gt;leaf6 -->
<g id="edge20" class="edge">
<title>split9&#45;&gt;leaf6</title>
<path fill="none" stroke="#000000" d="M2315.2443,-107.3174C2282.0553,-91.729 2238.8337,-71.4284 2204.1127,-55.1204"/>
<polygon fill="#000000" stroke="#000000" points="2205.5606,-51.9337 2195.0213,-50.8503 2202.5847,-58.2696 2205.5606,-51.9337"/>
<text text-anchor="middle" x="2274.9655" y="-75.5401" font-family="Times,serif" font-size="14.00" fill="#000000">&lt;=</text>
</g>
<!-- leaf10 -->
<g id="node26" class="node">
<title>leaf10</title>
<ellipse fill="none" stroke="#000000" cx="2387.9655" cy="-26.8701" rx="113.2743" ry="26.7407"/>
<text text-anchor="middle" x="2387.9655" y="-30.6701" font-family="Times,serif" font-size="14.00" fill="#000000">leaf_index:10</text>
<text text-anchor="middle" x="2387.9655" y="-15.6701" font-family="Times,serif" font-size="14.00" fill="#000000">leaf_value:0.01750021680450922</text>
</g>
<!-- split9&#45;&gt;leaf10 -->
<g id="edge21" class="edge">
<title>split9&#45;&gt;leaf10</title>
<path fill="none" stroke="#000000" d="M2372.3735,-104.637C2374.872,-92.1754 2377.8781,-77.1823 2380.5812,-63.7002"/>
<polygon fill="#000000" stroke="#000000" points="2384.0416,-64.2448 2382.5758,-53.7518 2377.1782,-62.8686 2384.0416,-64.2448"/>
<text text-anchor="middle" x="2381.9655" y="-75.5401" font-family="Times,serif" font-size="14.00" fill="#000000">&gt;</text>
</g>
<!-- split13 -->
<g id="node28" class="node">
<title>split13</title>
<ellipse fill="none" stroke="#000000" cx="2658.9655" cy="-131.6102" rx="126.6443" ry="26.7407"/>
<text text-anchor="middle" x="2658.9655" y="-135.4102" font-family="Times,serif" font-size="14.00" fill="#000000">split_feature_name:TotalChargesConv</text>
<text text-anchor="middle" x="2658.9655" y="-120.4102" font-family="Times,serif" font-size="14.00" fill="#000000">threshold:3521.2250000000004</text>
</g>
<!-- split6&#45;&gt;split13 -->
<g id="edge26" class="edge">
<title>split6&#45;&gt;split13</title>
<path fill="none" stroke="#000000" d="M2658.9655,-209.3771C2658.9655,-197.0377 2658.9655,-182.2162 2658.9655,-168.8373"/>
<polygon fill="#000000" stroke="#000000" points="2662.4656,-168.4919 2658.9655,-158.4919 2655.4656,-168.492 2662.4656,-168.4919"/>
<text text-anchor="middle" x="2664.9655" y="-180.2802" font-family="Times,serif" font-size="14.00" fill="#000000">&lt;=</text>
</g>
<!-- split10 -->
<g id="node31" class="node">
<title>split10</title>
<ellipse fill="none" stroke="#000000" cx="3150.9655" cy="-131.6102" rx="126.6443" ry="26.7407"/>
<text text-anchor="middle" x="3150.9655" y="-135.4102" font-family="Times,serif" font-size="14.00" fill="#000000">split_feature_name:TotalChargesConv</text>
<text text-anchor="middle" x="3150.9655" y="-120.4102" font-family="Times,serif" font-size="14.00" fill="#000000">threshold:3091.6500000000005</text>
</g>
<!-- split6&#45;&gt;split10 -->
<g id="edge29" class="edge">
<title>split6&#45;&gt;split10</title>
<path fill="none" stroke="#000000" d="M2761.506,-214.5208C2846.7031,-196.3835 2967.1884,-170.7338 3051.5169,-152.7814"/>
<polygon fill="#000000" stroke="#000000" points="3052.3071,-156.1917 3061.3592,-150.6861 3050.8495,-149.3451 3052.3071,-156.1917"/>
<text text-anchor="middle" x="2937.9655" y="-180.2802" font-family="Times,serif" font-size="14.00" fill="#000000">&gt;</text>
</g>
<!-- leaf3 -->
<g id="node29" class="node">
<title>leaf3</title>
<ellipse fill="none" stroke="#000000" cx="2638.9655" cy="-26.8701" rx="119.5021" ry="26.7407"/>
<text text-anchor="middle" x="2638.9655" y="-30.6701" font-family="Times,serif" font-size="14.00" fill="#000000">leaf_index:3</text>
<text text-anchor="middle" x="2638.9655" y="-15.6701" font-family="Times,serif" font-size="14.00" fill="#000000">leaf_value:&#45;0.010632405160384719</text>
</g>
<!-- split13&#45;&gt;leaf3 -->
<g id="edge24" class="edge">
<title>split13&#45;&gt;leaf3</title>
<path fill="none" stroke="#000000" d="M2653.815,-104.637C2651.4355,-92.1754 2648.5726,-77.1823 2645.9982,-63.7002"/>
<polygon fill="#000000" stroke="#000000" points="2649.4121,-62.9179 2644.0986,-53.7518 2642.5363,-64.2309 2649.4121,-62.9179"/>
<text text-anchor="middle" x="2656.9655" y="-75.5401" font-family="Times,serif" font-size="14.00" fill="#000000">&lt;=</text>
</g>
<!-- leaf14 -->
<g id="node30" class="node">
<title>leaf14</title>
<ellipse fill="none" stroke="#000000" cx="2895.9655" cy="-26.8701" rx="119.5021" ry="26.7407"/>
<text text-anchor="middle" x="2895.9655" y="-30.6701" font-family="Times,serif" font-size="14.00" fill="#000000">leaf_index:14</text>
<text text-anchor="middle" x="2895.9655" y="-15.6701" font-family="Times,serif" font-size="14.00" fill="#000000">leaf_value:&#45;0.019362711699013338</text>
</g>
<!-- split13&#45;&gt;leaf14 -->
<g id="edge25" class="edge">
<title>split13&#45;&gt;leaf14</title>
<path fill="none" stroke="#000000" d="M2713.9338,-107.3174C2749.3565,-91.6626 2795.5326,-71.2555 2832.5129,-54.9124"/>
<polygon fill="#000000" stroke="#000000" points="2833.9726,-58.0939 2841.7044,-50.8503 2831.143,-51.6913 2833.9726,-58.0939"/>
<text text-anchor="middle" x="2794.9655" y="-75.5401" font-family="Times,serif" font-size="14.00" fill="#000000">&gt;</text>
</g>
<!-- leaf7 -->
<g id="node32" class="node">
<title>leaf7</title>
<ellipse fill="none" stroke="#000000" cx="3150.9655" cy="-26.8701" rx="117.2596" ry="26.7407"/>
<text text-anchor="middle" x="3150.9655" y="-30.6701" font-family="Times,serif" font-size="14.00" fill="#000000">leaf_index:7</text>
<text text-anchor="middle" x="3150.9655" y="-15.6701" font-family="Times,serif" font-size="14.00" fill="#000000">leaf_value:0.004151809488584588</text>
</g>
<!-- split10&#45;&gt;leaf7 -->
<g id="edge27" class="edge">
<title>split10&#45;&gt;leaf7</title>
<path fill="none" stroke="#000000" d="M3150.9655,-104.637C3150.9655,-92.2976 3150.9655,-77.4761 3150.9655,-64.0972"/>
<polygon fill="#000000" stroke="#000000" points="3154.4656,-63.7518 3150.9655,-53.7518 3147.4656,-63.7519 3154.4656,-63.7518"/>
<text text-anchor="middle" x="3156.9655" y="-75.5401" font-family="Times,serif" font-size="14.00" fill="#000000">&lt;=</text>
</g>
<!-- leaf11 -->
<g id="node33" class="node">
<title>leaf11</title>
<ellipse fill="none" stroke="#000000" cx="3405.9655" cy="-26.8701" rx="119.5021" ry="26.7407"/>
<text text-anchor="middle" x="3405.9655" y="-30.6701" font-family="Times,serif" font-size="14.00" fill="#000000">leaf_index:11</text>
<text text-anchor="middle" x="3405.9655" y="-15.6701" font-family="Times,serif" font-size="14.00" fill="#000000">leaf_value:&#45;0.007528682743337245</text>
</g>
<!-- split10&#45;&gt;leaf11 -->
<g id="edge28" class="edge">
<title>split10&#45;&gt;leaf11</title>
<path fill="none" stroke="#000000" d="M3209.148,-107.712C3247.7959,-91.8375 3298.6521,-70.9486 3338.9866,-54.3813"/>
<polygon fill="#000000" stroke="#000000" points="3340.5525,-57.522 3348.4728,-50.4849 3337.8929,-51.0469 3340.5525,-57.522"/>
<text text-anchor="middle" x="3296.9655" y="-75.5401" font-family="Times,serif" font-size="14.00" fill="#000000">&gt;</text>
</g>
</g>
</svg>
